<svg width="181" height="181" fill="none" xmlns="http://www.w3.org/2000/svg"><circle cx="90.183" cy="90.183" r="90.183" fill="#F2F7FF"/><path d="M41.12 68.539l13.39 13.39M41.118 81.93l13.39-13.391" stroke="#003188" stroke-width="2.5" stroke-linecap="round" stroke-linejoin="round"/><path d="M89.82 120.524c6.983-.013 13.995-1.676 20.534-4.036 3.201-1.155 6.345-2.507 9.345-4.117 2.502-1.344 4.943-2.877 7.078-4.759a16.134 16.134 0 0 0 2.302-2.478c.519-.696.875-1.469.917-2.35.054-1.109-.442-2.013-1.074-2.878a29.363 29.363 0 0 0-7.472-7.154c-4.646-3.088-10.08-4.774-15.585-5.445-1.684-.206-3.401-.34-5.098-.3-2.786.064-5.529 1.126-8.091 2.12-1.003.39-1.997.796-2.99 1.21h.627c-2.994-1.249-6.104-2.633-9.331-3.15-1.76-.282-3.551-.187-5.32-.038-5.206.44-10.37 1.784-14.967 4.306-2.86 1.567-5.484 3.609-7.666 6.034a30.66 30.66 0 0 0-1.727 2.114c-.645.857-1.204 1.685-1.292 2.788-.122 1.549.872 2.782 1.799 3.905 1.54 1.867 3.423 3.443 5.39 4.842 2.405 1.71 5.011 3.133 7.71 4.324 6.87 3.031 14.308 4.636 21.8 4.989 1.037.049 2.074.072 3.11.073 1.518.002 1.521-2.356 0-2.358-7.373-.01-14.745-1.238-21.639-3.885a46.364 46.364 0 0 1-7.923-3.932 39.25 39.25 0 0 1-1.638-1.084c-.243-.17-.483-.343-.722-.52-.132-.097-.263-.196-.392-.294-.024-.017-.203-.155-.095-.071.11.085-.113-.089-.134-.106a27.377 27.377 0 0 1-2.603-2.321 20.914 20.914 0 0 1-1.031-1.126 26.82 26.82 0 0 1-.456-.559c-.101-.128.129.172.033.042l-.098-.131a19.82 19.82 0 0 1-.236-.325c-.37-.525-.683-1.051-.45-1.695.25-.686.86-1.329 1.314-1.89a26.736 26.736 0 0 1 6.975-6.107c2.438-1.482 4.734-2.457 7.45-3.255a38.056 38.056 0 0 1 3.634-.873c.543-.103 1.09-.194 1.637-.275l.37-.053c.3-.043-.184.024.005 0 .06-.008.12-.016.18-.022.262-.033.525-.063.788-.092 1.591-.169 3.244-.314 4.846-.207.124.009.25.02.375.032.082.01.433.06.12.012.28.042.557.09.833.146.6.121 1.191.277 1.778.448 1.608.473 3.179 1.068 4.735 1.687.443.177.885.356 1.328.537.233.097.464.209.702.291.43.15.746.1 1.165-.073.924-.384 1.85-.76 2.782-1.12 1.465-.564 2.947-1.102 4.466-1.506a17.567 17.567 0 0 1 1.68-.368c.1-.016.409-.056.132-.023.128-.016.256-.03.385-.042.242-.023.486-.037.728-.04.709-.01 1.42.015 2.127.051a41.13 41.13 0 0 1 2.76.235l.401.05c.059.007.231.03-.041-.006l.184.026a40.595 40.595 0 0 1 2.515.434c1.242.255 2.472.572 3.682.952.627.197 1.249.411 1.864.644.728.275 1.122.44 1.774.738 2.714 1.243 5.206 2.84 7.351 4.81a26.089 26.089 0 0 1 3.243 3.557c.439.587 1.047 1.243.921 1.999-.053.321-.217.575-.4.837-.06.086-.125.169-.184.255-.036.051-.137.173.037-.046-.051.065-.102.13-.154.193-.665.813-1.431 1.54-2.235 2.214-.226.189-.456.374-.688.557-.146.114.132-.101-.016.012l-.216.163c-.133.099-.266.196-.399.293-.546.395-1.103.772-1.67 1.136-2.557 1.64-5.285 3.013-8.072 4.214-5.983 2.58-12.714 4.531-19.17 5.225-1.541.165-3.09.258-4.64.261-1.515-.001-1.518 2.357.003 2.354z" fill="#003188"/><path d="M128.523 102.121c-4.805-1.734-9.846-2.479-14.943-2.057-4.733.393-9.366 1.53-14.056 2.228a65.79 65.79 0 0 1-17.228.271c-4.935-.568-9.813-1.689-14.759-2.265-4.766-.555-9.565-.342-14.156 1.14a32.76 32.76 0 0 0-1.905.683c-.592.232-1.005.79-.823 1.45.155.565.854 1.057 1.45.823 4.547-1.78 9.065-2.312 13.919-1.892 2.296.198 4.396.547 6.726.946 2.472.425 4.942.866 7.429 1.204 2.897.394 5.806.669 8.73.734 2.919.064 5.844-.128 8.741-.481 2.54-.308 5.059-.742 7.575-1.204 1.125-.206 2.25-.416 3.377-.61a95.337 95.337 0 0 1 2.458-.389c.32-.045.362-.05.717-.094 4.806-.59 9.417-.31 14.027 1.086a42.84 42.84 0 0 1 2.095.698c.6.217 1.292-.243 1.451-.823.179-.652-.223-1.231-.825-1.448z" fill="#003188"/></svg>