<svg width="181" height="181" fill="none" xmlns="http://www.w3.org/2000/svg"><circle cx="90.183" cy="90.183" r="90.183" fill="#F2F7FF"/><path d="M80.991 56.117v2.506a10 10 0 0 0 2.104 6.136l20.466 26.34c2.775 3.57 5.787 7.697 4.525 12.04-.604 2.077-1.962 4.054-4.505 5.202-4.44 2.005-10.15 3.067-14.27 4.012-1.715.393-2.867 1.939-2.867 3.699v9.302" stroke="#003188" stroke-width="2.5" stroke-linecap="round" stroke-linejoin="round"/><path d="M96.263 105.344H85.889c-1.862.9-4.388 2.7-9.974 2.7-5.188 0-9.18-3.086-9.18-8.102 0-4.262 1.998-8.875 12.77-8.103M116.476 92.349l13.39 13.39M116.473 105.739l13.39-13.39" stroke="#003188" stroke-width="2.5" stroke-linecap="round" stroke-linejoin="round"/></svg>