<svg xmlns="http://www.w3.org/2000/svg" width="200" height="200" fill="none"><circle cx="100" cy="100" r="100" fill="#F2F7FF"/><g clip-path="url(#clip0)" fill="#003188"><path d="M140 127.5c-.275-1.387-2.006-2.369-4.2-3.606-1.344-.763-2.869-1.625-3.388-2.294-1.068-1.375-1.5-5.037-1.4-7.15.05-1.044 1.5-4.719 2.894-8.275 2.15-5.462 4.581-11.65 4.869-15.081.625-7.669-1.5-18.125-9.475-24.488-3.675-2.856-10.306-6.131-18.05-6.562-6.169-.338-15 1.075-22.213 9.769-3.456 4.15-5.287 7.38-5.38 9.6 0 .124-.57 12.5.437 13.88.125.176.275.37.437.57.358.398.653.85.875 1.337-.119.412-.762 1.944-3.956 7.638l-.231.406a4.011 4.011 0 0 0 .812 4.569c.644.433 1.36.75 2.113.937.362.119.9.294 1.25.438a6.105 6.105 0 0 1-.444 1.831c-.888 1.556 1.006 2.706 2.681 3.75l.338.206c-.163.263-.375.569-.525.794a7.645 7.645 0 0 0-1.157 2.081c-.262.975.538 1.525 1.063 1.875.298.193.577.415.831.663-.025.121-.058.24-.1.356-.26.814-.44 1.651-.537 2.5-.338 2.637 2.5 4.6 4.43 5.275.97.331 5.55-.275 7.876-1.013a63.196 63.196 0 0 1 3.9 11.513A1.25 1.25 0 0 0 105 140c.089.009.179.009.269 0a1.252 1.252 0 0 0 .95-1.487 67.003 67.003 0 0 0-2.544-8.363c-1.875-5-2.5-5.169-3.006-5.325a1.351 1.351 0 0 0-1.182.213c-2.195.629-4.456 1-6.737 1.106-1.388-.494-2.831-1.663-2.713-2.581.078-.695.227-1.38.444-2.044.063-.213.131-.425.175-.625l.338-.131a1.253 1.253 0 0 0 .482-2.048 1.245 1.245 0 0 0-.895-.381 1.252 1.252 0 0 0-.487.097l-.263.1a7.168 7.168 0 0 0-.781-.625l.469-.693c.837-1.25 1.78-2.607.743-3.644a7.27 7.27 0 0 0-1.325-.906c-.387-.238-1.106-.669-1.512-.988.037-.1.069-.2.1-.306a.94.94 0 0 0 .106 0l1.2-.269a1.236 1.236 0 0 0 .843-.527 1.25 1.25 0 0 0-1.374-1.91l-.394.081a2.004 2.004 0 0 0 0-.294c-.181-1.106-1.344-1.481-2.95-2.006a12.87 12.87 0 0 1-1.25-.45 1.735 1.735 0 0 1-.231-1.438l.225-.4c3.956-7.05 4.281-8.187 4.281-8.806 0-1.162-.787-2.15-1.425-2.95l-.306-.438c-.3-1.38-.238-9.337-.069-12.412.088-1.6 1.838-4.569 4.788-8.125 11.968-14.512 30.281-8.025 36.75-2.837 9.293 7.418 8.75 19.893 8.543 22.318-.262 3.069-2.725 9.338-4.706 14.375-1.912 4.869-3 7.688-3.062 9.075-.082 1.657.106 6.475 1.918 8.8.825 1.063 2.432 1.975 4.132 2.938 1.018.575 2.706 1.531 2.993 1.994a1.254 1.254 0 0 0 1.5.937 1.253 1.253 0 0 0 .938-1.5l.025-.025zm-38.869-.625a1.258 1.258 0 0 1-.4.263c.137-.069.264-.158.375-.263h.025z"/><path d="M124 125.737c-.35-.737-.713-1.487-1.088-2.237a1.25 1.25 0 0 0-1.692-.598 1.257 1.257 0 0 0-.688 1.234c.015.167.064.329.143.476.362.738.725 1.475 1.069 2.2a1.246 1.246 0 0 0 1.125.713c.186-.001.369-.044.537-.125a1.252 1.252 0 0 0 .594-1.663zM127.037 132.544c-.3-.719-.625-1.481-.975-2.281a1.238 1.238 0 0 0-.277-.405 1.247 1.247 0 0 0-1.373-.258 1.26 1.26 0 0 0-.662 1.65c.344.788.669 1.538.962 2.25a1.25 1.25 0 0 0 1.157.763 1.25 1.25 0 0 0 1.168-1.719zM109.331 109.075c.144.069.288.144.425.225.142.103.303.175.474.212a1.26 1.26 0 0 0 .994-.21 1.241 1.241 0 0 0 .51-.878 1.255 1.255 0 0 0-.309-.967 1.26 1.26 0 0 0-.419-.307 5.781 5.781 0 0 0-.625-.325 7.008 7.008 0 0 0-2.187-.587 1.252 1.252 0 0 0-.931.253 1.246 1.246 0 0 0-.478.837 1.252 1.252 0 0 0 .253.931 1.264 1.264 0 0 0 .837.479c.5.035.992.149 1.456.337zM120.588 119.087a67.176 67.176 0 0 0-1.25-2.168 1.26 1.26 0 0 0-.769-.613 1.24 1.24 0 0 0-.973.132 1.26 1.26 0 0 0-.371.338 1.263 1.263 0 0 0-.218.958c.03.167.094.325.187.466.412.687.812 1.387 1.212 2.1a1.259 1.259 0 0 0 1.252.702 1.246 1.246 0 0 0 1.087-.936 1.252 1.252 0 0 0-.157-.979zM114.55 114.175a1.25 1.25 0 1 0 2.019-1.475 35.251 35.251 0 0 0-1.575-2.006 1.253 1.253 0 0 0-1.644-.009 1.245 1.245 0 0 0-.231 1.627 52.34 52.34 0 0 1 1.431 1.863zM104.375 107.375a1.252 1.252 0 0 0-1.319-1.125 64.65 64.65 0 0 0-2.5.244 1.253 1.253 0 1 0 .138 2.5h.143a58.7 58.7 0 0 1 2.4-.231 1.258 1.258 0 0 0 1.095-.893c.047-.16.062-.328.043-.495zM97.056 108.193a1.252 1.252 0 0 0-1.431-1.031c-.85.138-1.675.281-2.45.425a1.267 1.267 0 0 0-.851.446 1.254 1.254 0 0 0 1.076 2.054c.075.006.15.006.225 0a119.51 119.51 0 0 1 2.406-.419 1.239 1.239 0 0 0 .825-.52 1.245 1.245 0 0 0 .2-.955zM128.875 137.138a1.244 1.244 0 0 0-1.128-.813 1.25 1.25 0 0 0-1.216 1.688c.244.625.369 1.006.394 1.1a1.252 1.252 0 0 0 2.394-.725 35.35 35.35 0 0 0-.444-1.25zM111 119.25a23.26 23.26 0 0 0-1.444-2.119 1.252 1.252 0 0 0-1.723-.177 1.253 1.253 0 0 0-.246 1.715c.394.512.825 1.143 1.25 1.875a1.247 1.247 0 0 0 1.063.625c.22-.005.436-.067.625-.182a1.258 1.258 0 0 0 .607-.767 1.257 1.257 0 0 0-.132-.97zM114.375 125.831c-.344-.75-.694-1.494-1.044-2.219a1.251 1.251 0 0 0-2.25 1.094c.344.706.681 1.431 1.019 2.156a1.243 1.243 0 0 0 1.137.738 1.252 1.252 0 0 0 1.138-1.769zM102.094 117.312h.212a15.453 15.453 0 0 1 2.219-.237 1.26 1.26 0 0 0 .875-.389 1.252 1.252 0 0 0-.938-2.111c-.866.029-1.728.12-2.581.275a1.258 1.258 0 0 0-1.144 1.356 1.259 1.259 0 0 0 1.357 1.144v-.038zM95.088 119.169c.133 0 .266-.021.393-.063a58.722 58.722 0 0 1 2.269-.706 1.253 1.253 0 0 0 .847-1.553 1.252 1.252 0 0 0-1.553-.847c-.8.231-1.588.481-2.344.731a1.25 1.25 0 0 0 .388 2.438zM117.225 132.588a111.28 111.28 0 0 0-.906-2.269 1.251 1.251 0 0 0-2.313.95c.319.769.625 1.519.888 2.225.12.309.358.558.662.691a1.251 1.251 0 0 0 1.669-1.597zM118.919 137.15a1.26 1.26 0 0 0-.636-.715 1.257 1.257 0 0 0-1.376.19 1.252 1.252 0 0 0-.351 1.344c.244.694.338 1.013.356 1.088.069.269.225.509.445.68a1.242 1.242 0 0 0 1.074.226 1.253 1.253 0 0 0 .932-1.032 1.25 1.25 0 0 0-.026-.487c-.05-.206-.193-.637-.418-1.294zM86.575 137.569c.869-2.344 2.181-5.881 1.481-8.688-.625-2.381-2.881-4.15-5.306-6.025a27.501 27.501 0 0 1-3.75-3.281c-2.388-2.7-2.888-6.919-2.888-9.956 0-3.038-.38-6.094-3.162-8.875-.894-.894-2.763-2.763-8.069-2.763a1.25 1.25 0 1 0 0 2.5h.3a39.322 39.322 0 0 1-1.637 4.894c-1.719 4.544-3.856 10.194-3.506 15.113.35 4.918 3.83 10.137 3.862 10.137.355.505.893.853 1.5.969v7.156a1.249 1.249 0 1 0 2.5 0v-6.875l2.356.175v6.7a1.249 1.249 0 1 0 2.5 0v-6.531l1.382.106.037.138.781 2.5a3.854 3.854 0 0 0 4.081 3.125c1.541-.14 3.094.006 4.582.431a1.25 1.25 0 0 0 1.225 1.456 1.25 1.25 0 0 0 1.212-.95c.044-.156.113-.375.2-.625a.656.656 0 0 0 .044-.1c.081-.212.169-.462.275-.731zm-7.794-1.944a1.409 1.409 0 0 1-1.394-1.25s0-.062-.03-.094l-.763-2.5a2.427 2.427 0 0 0-2.156-1.968l-8.507-.625c-.694-1.025-3.125-5.257-3.4-8.882-.312-4.375 1.719-9.731 3.35-14.05a32.22 32.22 0 0 0 1.788-5.531 6.012 6.012 0 0 1 3.512 1.775c2.019 2.019 2.431 4.3 2.431 7.106 0 3.463.626 8.294 3.507 11.6a28.88 28.88 0 0 0 4.131 3.625c1.981 1.532 4.025 3.125 4.412 4.657.47 1.875-.5 4.756-1.212 6.7a15.004 15.004 0 0 0-5.669-.563z"/><path d="M73.081 121.076c-.837-2.3-3.125-3.582-5.137-2.857-2.013.725-2.944 3.194-2.088 5.494a4.857 4.857 0 0 0 2.025 2.5 3.782 3.782 0 0 0 1.95.556c.397.001.79-.069 1.163-.206 1.993-.725 2.93-3.194 2.087-5.494v.007zm-2.944 3.125a1.188 1.188 0 0 1-.975-.144 2.4 2.4 0 0 1-.956-1.25c-.362-.988-.087-2.038.625-2.288a.889.889 0 0 1 .319-.056 1.982 1.982 0 0 1 1.612 1.419c.332 1.044.063 2.087-.625 2.337v-.018zM69.894 93.7a1.25 1.25 0 0 1-1.25-1.25 12.63 12.63 0 0 1 .825-4.757c.485-1.257.719-2.597.687-3.944.035-1.345-.199-2.683-.687-3.937a12.812 12.812 0 0 1-.819-4.756 12.79 12.79 0 0 1 .825-4.757c.488-1.251.722-2.588.688-3.93a1.25 1.25 0 0 1 1.25-1.25 1.25 1.25 0 0 1 1.25 1.25 12.594 12.594 0 0 1-.825 4.75 10.255 10.255 0 0 0-.688 3.937 10.251 10.251 0 0 0 .681 3.937c.578 1.518.858 3.133.825 4.756a12.918 12.918 0 0 1-.825 4.757 10.111 10.111 0 0 0-.687 3.937 1.25 1.25 0 0 1-1.25 1.256zM76.769 97.45a1.25 1.25 0 0 1-1.25-1.25 12.63 12.63 0 0 1 .825-4.757c.485-1.257.719-2.597.687-3.944.035-1.345-.199-2.683-.687-3.937a12.812 12.812 0 0 1-.819-4.756 12.79 12.79 0 0 1 .825-4.757c.488-1.251.722-2.588.688-3.93a1.25 1.25 0 0 1 1.25-1.25 1.25 1.25 0 0 1 1.25 1.25 12.594 12.594 0 0 1-.825 4.75 10.255 10.255 0 0 0-.688 3.937 10.251 10.251 0 0 0 .681 3.937c.578 1.518.858 3.133.825 4.756a12.918 12.918 0 0 1-.825 4.757 10.111 10.111 0 0 0-.687 3.937 1.25 1.25 0 0 1-1.25 1.256z"/></g><defs><clipPath id="clip0"><path fill="#fff" d="M60 60h80v80H60z"/></clipPath></defs></svg>