<svg width="180" height="180" fill="none" xmlns="http://www.w3.org/2000/svg"><path d="M90 180c49.706 0 90-40.294 90-90S139.706 0 90 0 0 40.294 0 90s40.294 90 90 90z" fill="#F2F7FF"/><path d="M118.865 114.75c-.247-1.248-1.805-2.132-3.78-3.246-1.209-.686-2.582-1.462-3.049-2.064-.961-1.238-1.35-4.533-1.26-6.435.045-.94 1.35-4.247 2.605-7.448 1.935-4.915 4.123-10.485 4.382-13.573.562-6.902-1.35-16.312-8.528-22.038-3.307-2.571-9.275-5.519-16.245-5.907-5.552-.303-13.5.968-19.991 8.792-3.11 3.735-4.759 6.643-4.843 8.64 0 .113-.512 11.25.393 12.493.113.158.248.332.394.512.323.359.588.765.788 1.204-.107.371-.686 1.75-3.56 6.874l-.209.365a3.61 3.61 0 0 0 .731 4.113c.58.39 1.224.675 1.901.843.327.107.81.264 1.126.394-.047.566-.138.705-.356 1.23-.799 1.401.862 2.853 2.37 3.793l.303.185c-.146.237-.338.512-.473.715-.442.566-1.453 1.633-1.7 2.308-.238.651.528.685 1 1 .274.173 1.143.629 1.37.86a3.222 3.222 0 0 1-.096.332 11.826 11.826 0 0 0-.484 2.25c-.303 2.373 2.25 4.14 3.989 4.747.871.298 4.995-.247 7.087-.911a56.928 56.928 0 0 1 3.51 10.339 1.122 1.122 0 0 0 1.125.883c.08.008.161.008.242 0a1.128 1.128 0 0 0 .855-1.338 60.302 60.302 0 0 0-2.29-7.527c-1.687-4.5-2.25-4.652-2.705-4.793a1.208 1.208 0 0 0-1.063.192c-1.976.566-4.01.9-6.064.995-1.249-.444-2.548-1.496-2.441-2.322.07-.626.204-1.242.4-1.84a2.504 2.504 0 0 0 .078-1.688c-.277-.664-.823-1.176-1.435-1.555l.422-.624c.754-1.125 1.671-2.393.737-3.328a6.553 6.553 0 0 0-1.192-.815c-.349-.214-1.063-.896-1.429-1.183.335-.932.54-1.631.473-2.62-.163-.995-1.21-1.332-2.655-1.805a11.82 11.82 0 0 1-1.125-.405 1.565 1.565 0 0 1-.209-1.294l.203-.36c3.56-6.345 3.853-7.369 3.853-7.926 0-1.046-.709-1.935-1.282-2.655l-.248-.343c-.27-1.243-.213-8.404-.062-11.171.079-1.44 1.654-4.112 4.309-7.313 10.772-13.06 27.253-7.222 33.075-2.553 8.364 6.677 7.875 17.904 7.689 20.087-.236 2.761-2.452 8.403-4.235 12.937-1.721 4.382-2.7 6.919-2.756 8.167-.074 1.492.095 5.828 1.726 7.92.743.957 2.189 1.778 3.719 2.644.916.518 2.435 1.378 2.694 1.795a1.124 1.124 0 0 0 1.35.843 1.128 1.128 0 0 0 .844-1.35l.022-.022zm-34.982-.563a1.131 1.131 0 0 1-.36.237c.124-.062.238-.142.338-.237h.022z" fill="#003188"/><path d="M80.864 75.4H78.31l2.389-3.17a.78.78 0 0 0 .098-.798l.09-.041a.813.813 0 0 0-.737-.491h-4.286a.1.1 0 0 0-.1.1v1.5a.1.1 0 0 0 .1.1h2.554l-2.467 3.108a.876.876 0 0 0 .105 1.194c.146.127.331.198.523.198h4.285a.1.1 0 0 0 .1-.1v-1.5a.1.1 0 0 0-.1-.1zM89.885 66.311a.712.712 0 0 1-.084.78l-3.696 4.536h3.76a.1.1 0 0 1 .1.1V73a.1.1 0 0 1-.1.1H84.53a.788.788 0 0 1-.47-.154.717.717 0 0 1-.134-1.036l5.958-5.599zm0 0a.77.77 0 0 0-.688-.411h-5.333a.1.1 0 0 0-.1.1v1.273a.1.1 0 0 0 .1.1h3.76l-3.697 4.537 5.958-5.599zM97.756 62.386l-4.845 6.526a.749.749 0 0 0-.07.777c.125.252.38.411.66.411h6.363a.1.1 0 0 0 .1-.1v-1.286a.1.1 0 0 0-.1-.1h-4.892l4.845-6.526a.747.747 0 0 0-.147-1.039l-.06.08.06-.08a.732.732 0 0 0-.442-.149H93.5a.1.1 0 0 0-.1.1v1.286a.1.1 0 0 0 .1.1h4.255z" fill="#003188" stroke="#003188" stroke-width=".2" stroke-linejoin="round"/><path d="M82.982 123.726a21.203 21.203 0 0 0-5.762-3.304 9.752 9.752 0 0 1-1.716-.828 48.84 48.84 0 0 0-3.917-4.435c-.395-.409-.824-.856-1.327-1.38a14.146 14.146 0 0 0-1.945-1.728c.055-1.183.124-2.167.178-3.035.187-2.921.287-4.525-.089-6.722-.339-2.003-1.408-3.443-2.807-3.765a2.647 2.647 0 0 0-2.775 1.146c-.854 1.186-1.773 7.308-2.017 13.468a2.308 2.308 0 0 0-.049 1.556c-.11 5.172.306 10.079 1.675 11.798a352.69 352.69 0 0 0 2.687 3.337 1.123 1.123 0 0 0 1.187.38c.15-.041.289-.114.408-.213a1.129 1.129 0 0 0 .143-1.577s-1.081-1.315-2.688-3.336c-.752-.957-1.062-3.792-1.155-7.171.455.457.932.907 1.414 1.356a16.43 16.43 0 0 1 1.782 1.838 49.416 49.416 0 0 1 3.023 4.994 1.128 1.128 0 0 0 1.498.542 1.127 1.127 0 0 0 .541-1.498 48.303 48.303 0 0 0-3.184-5.26 15.187 15.187 0 0 0-2.111-2.218c-.79-.736-2.428-2.287-2.945-3.194.007-.265.013-.536.025-.807a1.656 1.656 0 0 1 1.108-.737c1.176-.201 2.795.677 4.445 2.417.508.542.949.991 1.343 1.377a46.25 46.25 0 0 1 3.764 4.262c.478.601 1.321.961 2.602 1.508a19.361 19.361 0 0 1 5.174 2.937 1.118 1.118 0 0 0 1.584-.122 1.123 1.123 0 0 0-.094-1.586zm-19.19-13.037c-.2.041-.397.096-.59.165.287-4.753.877-9.008 1.452-9.852.155-.219.304-.313.441-.282.319.075.874.661 1.097 1.954.327 1.941.235 3.364.055 6.206-.038.594-.08 1.278-.123 2.02a4.799 4.799 0 0 0-2.332-.211z" fill="#003188"/></svg>