<svg xmlns="http://www.w3.org/2000/svg" width="200" height="200" fill="none"><circle cx="100" cy="100" r="100" fill="#F2F7FF"/><g clip-path="url(#clip0)" fill="#003188"><path d="M140 127.5c-.275-1.387-2.006-2.369-4.2-3.606-1.344-.763-2.869-1.625-3.388-2.294-1.068-1.375-1.5-5.037-1.4-7.15.05-1.044 1.5-4.719 2.894-8.275 2.15-5.462 4.581-11.65 4.869-15.081.625-7.669-1.5-18.125-9.475-24.488-3.675-2.856-10.306-6.131-18.05-6.562-6.169-.338-15 1.075-22.213 9.769-3.456 4.15-5.287 7.38-5.38 9.6 0 .124-.57 12.5.437 13.88.125.176.275.37.437.57.358.398.653.85.875 1.337-.119.412-.762 1.944-3.956 7.638l-.231.406a4.011 4.011 0 0 0 .812 4.569c.644.433 1.36.75 2.113.937.362.119.9.294 1.25.438a6.105 6.105 0 0 1-.444 1.831c-.888 1.556 1.006 2.706 2.681 3.75l.338.206c-.163.263-.375.569-.525.794a7.645 7.645 0 0 0-1.157 2.081c-.262.975.538 1.525 1.063 1.875.304.192.585.419.837.675a3.518 3.518 0 0 1-.106.369c-.26.814-.44 1.651-.537 2.5-.338 2.637 2.5 4.6 4.43 5.275.97.331 5.55-.275 7.876-1.013a63.256 63.256 0 0 1 3.9 11.488A1.25 1.25 0 0 0 105 140c.089.009.179.009.269 0a1.252 1.252 0 0 0 .95-1.487 67.003 67.003 0 0 0-2.544-8.363c-1.875-5-2.5-5.169-3.006-5.325a1.338 1.338 0 0 0-1.182.213c-2.195.629-4.456 1-6.737 1.106-1.388-.494-2.831-1.663-2.713-2.581.078-.695.227-1.38.444-2.044a2.781 2.781 0 0 0 .088-1.875 3.834 3.834 0 0 0-1.52-1.781l.47-.694c.837-1.25 1.78-2.606.743-3.644a7.27 7.27 0 0 0-1.325-.906c-.387-.238-1.106-.669-1.512-.988a7.955 7.955 0 0 0 .45-3.237c-.181-1.106-1.344-1.481-2.95-2.006a13.14 13.14 0 0 1-1.25-.45 1.739 1.739 0 0 1-.231-1.438l.225-.4c3.956-7.05 4.28-8.188 4.28-8.806 0-1.163-.787-2.15-1.424-2.95l-.275-.381c-.3-1.382-.238-9.338-.069-12.413.088-1.6 1.838-4.569 4.788-8.125 11.968-14.512 30.281-8.025 36.75-2.837 9.293 7.418 8.75 19.893 8.543 22.318-.262 3.069-2.725 9.338-4.706 14.375-1.912 4.869-3 7.688-3.062 9.075-.082 1.657.106 6.475 1.918 8.8.825 1.063 2.432 1.975 4.132 2.938 1.018.575 2.706 1.531 2.993 1.994a1.254 1.254 0 0 0 1.5.937 1.253 1.253 0 0 0 .938-1.5l.025-.025zm-38.869-.625a1.258 1.258 0 0 1-.4.263c.137-.069.264-.158.375-.263h.025zM83.181 138.056a23.532 23.532 0 0 0-5.175-5.262 10.881 10.881 0 0 1-1.587-1.4 54.161 54.161 0 0 0-2.863-5.919c-.3-.556-.625-1.163-1.006-1.875a15.776 15.776 0 0 0-1.563-2.431c.413-1.25.782-2.282 1.1-3.194 1.075-3.069 1.663-4.756 1.92-7.219.237-2.244-.476-4.106-1.876-4.869a2.94 2.94 0 0 0-3.312.394c-1.269 1.013-4.088 7.288-6.194 13.806a2.565 2.565 0 0 0-.519 1.65c-1.669 5.5-2.694 10.875-1.744 13.125a383.719 383.719 0 0 0 1.875 4.375 1.246 1.246 0 0 0 1.157.763c.172.001.343-.036.5-.106a1.252 1.252 0 0 0 .625-1.644s-.763-1.731-1.875-4.375c-.519-1.25 0-4.375.912-8.019.35.625.725 1.25 1.106 1.875.517.797.97 1.633 1.357 2.5a55.012 55.012 0 0 1 1.737 6.25 1.254 1.254 0 0 0 1.44 1.028 1.253 1.253 0 0 0 1.029-1.44 53.619 53.619 0 0 0-1.831-6.582 16.813 16.813 0 0 0-1.594-3.006c-.625-1.025-1.912-3.175-2.194-4.3.088-.281.175-.569.269-.856a1.82 1.82 0 0 1 1.406-.456c1.319.137 2.788 1.562 4.031 3.918a49.32 49.32 0 0 0 1.026 1.875 51.465 51.465 0 0 1 2.75 5.688c.33.787 1.125 1.425 2.33 2.394a21.496 21.496 0 0 1 4.657 4.693 1.248 1.248 0 0 0 1.044.557c.245-.002.484-.076.687-.213a1.25 1.25 0 0 0 .375-1.725zm-16.625-19.7a4.84 4.84 0 0 0-.681 0c1.731-5 3.638-9.375 4.506-10.106.231-.188.419-.244.556-.169.32.175.738.969.588 2.419-.231 2.175-.756 3.669-1.8 6.656-.219.625-.469 1.344-.737 2.125a5.325 5.325 0 0 0-2.432-.925z"/><path d="M76.25 118.75a1.245 1.245 0 0 1-1.155-.772 1.248 1.248 0 0 1 .911-1.704 1.25 1.25 0 1 1 .244 2.476zM83.125 118.75a1.245 1.245 0 0 1-1.155-.772 1.248 1.248 0 0 1 .911-1.704 1.25 1.25 0 1 1 .244 2.476zM80 128.75a1.245 1.245 0 0 1-1.155-.772 1.248 1.248 0 0 1 .911-1.704A1.25 1.25 0 1 1 80 128.75zM112.5 132.5a15.622 15.622 0 0 1-5.562-1.031 1.247 1.247 0 0 1-.069-2.309c.302-.136.646-.146.956-.028a13.126 13.126 0 0 0 16.932-7.594 1.255 1.255 0 0 1 .656-.697 1.253 1.253 0 0 1 1.652.628 1.24 1.24 0 0 1 .029.956A15.672 15.672 0 0 1 112.5 132.5zM99.069 113.013a1.223 1.223 0 0 1-.444-.081 1.262 1.262 0 0 1-.806-1.132 1.251 1.251 0 0 1 .08-.481 15.627 15.627 0 0 1 20.157-9.044c.154.059.294.147.414.259.119.113.215.248.283.397a1.262 1.262 0 0 1 .028.957 1.237 1.237 0 0 1-.259.413 1.24 1.24 0 0 1-1.353.312 13.126 13.126 0 0 0-16.932 7.594 1.249 1.249 0 0 1-1.168.806z"/><path d="M112.5 127.137h-.425a1.245 1.245 0 0 1-1.124-.818 1.237 1.237 0 0 1 .327-1.347c.244-.224.567-.342.897-.329a7.766 7.766 0 0 0 7.363-4.493c.428-.925.67-1.926.712-2.944a1.245 1.245 0 0 1 .818-1.124 1.245 1.245 0 0 1 1.606.742c.057.154.083.318.076.482a10.278 10.278 0 0 1-10.25 9.831zM103.5 117.756h-.056a1.246 1.246 0 0 1-1.194-1.3 10.273 10.273 0 0 1 10.669-9.831 1.25 1.25 0 0 1-.1 2.5 7.779 7.779 0 0 0-5.575 2.05 7.78 7.78 0 0 0-2.5 5.388 1.251 1.251 0 0 1-1.244 1.193z"/><path d="M112.5 121.875h-.212a4.883 4.883 0 1 1 .212 0zm0-7.5a2.383 2.383 0 0 0-1.625 4.073 2.383 2.383 0 0 0 3.35 0 2.378 2.378 0 0 0-1.625-4.073h-.1z"/></g><defs><clipPath id="clip0"><path fill="#fff" d="M60 60h80v80H60z"/></clipPath></defs></svg>