<svg xmlns="http://www.w3.org/2000/svg" width="200" height="200" fill="none"><circle cx="100" cy="100" r="100" fill="#F2F7FF"/><g clip-path="url(#clip0)" fill="#003188"><path d="M105 140a1.249 1.249 0 0 1-1.25-.981 62.226 62.226 0 0 0-3.938-11.582c-2.556.625-7.769.675-8.475.432-1.962-.675-4.769-2.632-4.431-5.275l.144-1.113c.175-1.312.394-2.95.269-3.356a4.744 4.744 0 0 0-.538-1.006 2.23 2.23 0 0 1-.519-1.782c.106-.347.273-.673.494-.962-1.05-.725-2.631-1.875-1.8-3.35a5.92 5.92 0 0 0 .444-1.831c-.357-.144-.894-.319-1.25-.438a6.828 6.828 0 0 1-2.113-.912 4.025 4.025 0 0 1-.787-4.6l.237-.413c3.188-5.687 3.832-7.219 3.95-7.631a5.125 5.125 0 0 0-.875-1.331c-.162-.207-.312-.4-.437-.575-1.007-1.407-.444-13.75-.438-13.882.119-2.218 1.925-5.443 5.356-9.593 7.163-8.694 16.019-10.113 22.207-9.775 7.737.43 14.375 3.706 18.025 6.587 7.975 6.363 10.1 16.825 9.475 24.488-.288 3.43-2.719 9.618-4.869 15.081-1.394 3.556-2.844 7.231-2.894 8.275-.1 2.112.332 5.775 1.4 7.15.519.669 2.044 1.531 3.388 2.294 2.194 1.25 3.919 2.218 4.2 3.606a1.252 1.252 0 0 1-2.438.562c-.287-.462-1.975-1.418-2.993-1.993-1.7-.963-3.307-1.875-4.132-2.938-1.812-2.325-2-7.144-1.918-8.8.062-1.387 1.15-4.206 3.062-9.075 1.981-5.037 4.444-11.306 4.706-14.375.207-2.425.75-14.9-8.543-22.319-6.469-5.187-24.782-11.675-36.782 2.825-2.95 3.588-4.687 6.538-4.787 8.144-.169 3.069-.232 11.025.069 12.406.08.113.175.225.268.344.625.8 1.425 1.788 1.425 2.95 0 .625-.325 1.756-4.275 8.794l-.231.412a1.735 1.735 0 0 0 .231 1.438c.409.171.826.322 1.25.45 1.606.525 2.769.9 2.95 2.012a7.872 7.872 0 0 1-.493 3.338c.268.225.693.519.925.681.342.219.664.468.962.744a1.589 1.589 0 0 1 .5 1.169 1.794 1.794 0 0 1-.706 1.306l-.15.144.037.068c.328.483.597 1.003.8 1.55.306.919.119 2.338-.162 4.482l-.144 1.093c-.119.932 1.362 2.119 2.762 2.6a35.335 35.335 0 0 0 7.37-.537 1.352 1.352 0 0 1 1.124-.175c.538.156 1.15.337 3.007 5.325a66.984 66.984 0 0 1 2.543 8.362 1.247 1.247 0 0 1-.95 1.488 1.433 1.433 0 0 1-.262 0zm-3.894-13.125c-.134.12-.289.215-.456.281a1.16 1.16 0 0 0 .456-.281zM71.25 69.375h-5a1.25 1.25 0 0 0-1.25 1.25v16.25a1.25 1.25 0 0 0 1.25 1.25h5a1.25 1.25 0 0 0 1.25-1.25v-16.25a1.25 1.25 0 0 0-1.25-1.25zm-3.75 16.25v-13.75H70v13.75h-2.5z"/><path d="M68.75 60A8.75 8.75 0 0 0 60 68.75v38.75c0 1.713.85 4.919 2.5 9.531a20.283 20.283 0 0 1 1.25 6.975V135a5.002 5.002 0 0 0 8.535 3.536A5.002 5.002 0 0 0 73.75 135v-10.994c.007-2.38.43-4.74 1.25-6.975 1.65-4.612 2.5-7.818 2.5-9.531V68.75A8.75 8.75 0 0 0 68.75 60zm0 77.5a2.5 2.5 0 0 1-2.5-2.5v-4.375h5V135a2.501 2.501 0 0 1-2.5 2.5zm6.25-30c0 1.363-.869 4.525-2.375 8.675a22.779 22.779 0 0 0-1.375 7.831v4.119h-5v-4.119a22.779 22.779 0 0 0-1.375-7.831c-1.506-4.15-2.375-7.312-2.375-8.675V68.75a6.25 6.25 0 0 1 12.5 0v38.75zM100.625 94.375a1.25 1.25 0 0 1-1.25-1.25c-.03-1.456.266-2.9.869-4.225a7.283 7.283 0 0 0 .675-3.275 7.284 7.284 0 0 0-.675-3.275 9.73 9.73 0 0 1-.869-4.225c-.03-1.456.266-2.9.869-4.225a7.312 7.312 0 0 0 .675-3.275 1.252 1.252 0 0 1 2.134-.884c.234.234.366.552.366.884a9.673 9.673 0 0 1-.869 4.225 7.34 7.34 0 0 0-.675 3.275 7.31 7.31 0 0 0 .675 3.275 9.733 9.733 0 0 1 .869 4.225 9.66 9.66 0 0 1-.869 4.219 7.337 7.337 0 0 0-.675 3.281 1.252 1.252 0 0 1-1.25 1.25zM108.6 94.375a1.252 1.252 0 0 1-1.25-1.25c-.03-1.456.267-2.9.869-4.225a7.272 7.272 0 0 0 .681-3.275 7.286 7.286 0 0 0-.681-3.275 9.733 9.733 0 0 1-.869-4.225c-.03-1.456.267-2.9.869-4.225a7.3 7.3 0 0 0 .681-3.275 1.252 1.252 0 0 1 2.134-.884c.235.234.366.552.366.884a9.687 9.687 0 0 1-.868 4.225 7.328 7.328 0 0 0-.682 3.275c-.03 1.13.204 2.25.682 3.275a9.732 9.732 0 0 1 .868 4.225 9.66 9.66 0 0 1-.868 4.219 7.327 7.327 0 0 0-.682 3.281 1.247 1.247 0 0 1-1.25 1.25zM116.581 94.375a1.252 1.252 0 0 1-1.25-1.25c-.03-1.456.267-2.9.869-4.225a7.283 7.283 0 0 0 .675-3.275 7.284 7.284 0 0 0-.675-3.275 9.733 9.733 0 0 1-.869-4.225c-.03-1.456.267-2.9.869-4.225a7.312 7.312 0 0 0 .675-3.275 1.252 1.252 0 0 1 2.134-.884c.234.234.366.552.366.884a9.673 9.673 0 0 1-.869 4.225 7.34 7.34 0 0 0-.675 3.275 7.31 7.31 0 0 0 .675 3.275 9.733 9.733 0 0 1 .869 4.225 9.647 9.647 0 0 1-.869 4.219 7.337 7.337 0 0 0-.675 3.281 1.247 1.247 0 0 1-1.25 1.25z"/></g><defs><clipPath id="clip0"><path fill="#fff" d="M60 60h80v80H60z"/></clipPath></defs></svg>